HIERARCHY
ROOT Hips
{
	OFFSET 0.000000 0.000000 0.000000
	CHANNELS 6 Xposition Yposition Zposition Yrotation Xrotation Zrotation
	JOINT Chest
	{
		OFFSET 0.000000 -0.009281 11.569106
		CHANNELS 3 Yrotation Xrotation Zrotation
		JOINT Chest2
		{
			OFFSET -0.000000 0.016865 9.269641
			CHANNELS 3 Yrotation Xrotation Zrotation
			JOINT Chest3
			{
				OFFSET -0.000000 0.000001 8.374491
				CHANNELS 3 Yrotation Xrotation Zrotation
				JOINT Chest4
				{
					OFFSET -0.000000 0.000001 8.374493
					CHANNELS 3 Yrotation Xrotation Zrotation
					JOINT Neck
					{
						OFFSET -0.000000 0.000002 12.152554
						CHANNELS 3 Yrotation Xrotation Zrotation
						JOINT Head
						{
							OFFSET -0.000000 0.040101 7.802319
							CHANNELS 3 Yrotation Xrotation Zrotation
							End Site
							{
								OFFSET -0.000000 0.020947 14.853096
							}
						}
					}
					JOINT RightCollar
					{
						OFFSET 2.894404 0.000001 6.791374
						CHANNELS 3 Yrotation Xrotation Zrotation
						JOINT RightShoulder
						{
							OFFSET 13.574684 0.000001 0.000000
							CHANNELS 3 Yrotation Xrotation Zrotation
							JOINT RightElbow
							{
								OFFSET 23.923903 0.000002 0.000000
								CHANNELS 3 Yrotation Xrotation Zrotation
								JOINT RightWrist
								{
									OFFSET 19.846718 0.012767 0.000000
									CHANNELS 3 Yrotation Xrotation Zrotation
									End Site
									{
										OFFSET 14.973145 0.000001 0.000000
									}
								}
							}
						}
					}
					JOINT LeftCollar
					{
						OFFSET -2.894404 0.000001 6.791374
						CHANNELS 3 Yrotation Xrotation Zrotation
						JOINT LeftShoulder
						{
							OFFSET -13.574684 -0.000001 0.000000
							CHANNELS 3 Yrotation Xrotation Zrotation
							JOINT LeftElbow
							{
								OFFSET -23.923903 -0.000002 0.000000
								CHANNELS 3 Yrotation Xrotation Zrotation
								JOINT LeftWrist
								{
									OFFSET -19.846718 0.012763 0.000000
									CHANNELS 3 Yrotation Xrotation Zrotation
									End Site
									{
										OFFSET -14.973145 -0.000001 0.000000
									}
								}
							}
						}
					}
				}
			}
		}
	}
	JOINT RightHip
	{
		OFFSET 9.469263 0.004643 0.045487
		CHANNELS 3 Yrotation Xrotation Zrotation
		JOINT RightKnee
		{
			OFFSET 0.000000 0.002661 -40.478676
			CHANNELS 3 Yrotation Xrotation Zrotation
			JOINT RightAnkle
			{
				OFFSET 0.000000 0.049106 -35.224068
				CHANNELS 3 Yrotation Xrotation Zrotation
				JOINT RightToe
				{
					OFFSET -0.000001 12.539529 -6.151390
					CHANNELS 3 Yrotation Xrotation Zrotation
					End Site
					{
						OFFSET -0.000001 5.044994 -1.291870
					}
				}
			}
		}
	}
	JOINT LeftHip
	{
		OFFSET -9.469263 0.004641 0.045487
		CHANNELS 3 Yrotation Xrotation Zrotation
		JOINT LeftKnee
		{
			OFFSET 0.000000 0.002661 -40.478676
			CHANNELS 3 Yrotation Xrotation Zrotation
			JOINT LeftAnkle
			{
				OFFSET 0.000000 0.049106 -35.224068
				CHANNELS 3 Yrotation Xrotation Zrotation
				JOINT LeftToe
				{
					OFFSET -0.000001 12.539529 -6.151390
					CHANNELS 3 Yrotation Xrotation Zrotation
					End Site
					{
						OFFSET -0.000001 5.044994 -1.291870
					}
				}
			}
		}
	}
}
MOTION
Frames: 17
Frame Time: 0.016667
9.176857 4.790211 83.006630 -8.384967 -3.189102 -111.545568 -0.898720 -1.986849 1.025109 -0.441002 -0.880824 0.452049 -0.441002 -0.880824 0.452047 -0.330095 -0.660945 0.338395 1.767336 -22.040517 5.094694 4.603726 -5.038990 9.699210 4.373657 4.137213 0.768000 31.779559 -7.536222 64.933864 10.076840 -7.210009 12.690541 11.159730 -1.260148 -20.917948 -9.626295 -3.228231 -3.863813 -70.722948 -0.109687 -13.636243 2.041023 8.068035 4.104786 55.739166 20.265666 -45.242808 -0.139457 -8.773046 1.226193 0.585344 -5.359754 1.387313 -0.261459 5.066336 -3.268295 -0.046468 -0.107013 -0.031162 -0.980855 -10.366411 2.318336 0.210938 -3.079387 4.830756 0.583891 4.690642 0.750676 0.078128 0.001322 0.020329 
9.155679 4.774857 83.004715 -8.424973 -3.137684 -111.551913 -0.883583 -1.930348 1.059272 -0.434635 -0.856311 0.467526 -0.434636 -0.856311 0.467529 -0.325316 -0.642567 0.350030 1.759885 -22.125430 5.301972 4.639727 -5.212677 10.066542 4.259850 4.080603 0.716876 31.209767 -6.910908 66.418535 11.181779 -5.854869 14.524800 11.416325 -0.973538 -21.047580 -9.589493 -3.402070 -3.913173 -70.566721 -0.194477 -13.495986 2.230993 7.295791 4.544655 55.504433 19.961672 -45.427858 -0.198016 -8.752590 1.266832 0.608712 -5.421841 1.363714 -0.287663 5.097554 -3.262350 -0.040642 -0.112886 -0.032176 -1.026519 -10.361567 2.338893 0.207429 -3.108617 4.868495 0.555862 4.699040 0.720535 0.072866 0.006238 0.020736 
9.135461 4.759325 83.006371 -8.467987 -3.080979 -111.554235 -0.866523 -1.875813 1.110487 -0.428763 -0.833244 0.489092 -0.428763 -0.833244 0.489092 -0.320901 -0.625277 0.366228 1.755232 -22.212146 5.510736 4.680479 -5.390483 10.437011 4.155628 3.950197 0.633751 30.638497 -6.290952 67.899293 12.221462 -4.512321 16.378273 11.685038 -0.813759 -21.182210 -9.546647 -3.593963 -4.014909 -70.419155 -0.261861 -13.347751 2.407409 6.679177 4.933154 55.163097 19.525959 -45.636001 -0.262909 -8.726533 1.326197 0.641030 -5.497246 1.343145 -0.324374 5.131447 -3.290876 -0.034149 -0.114130 -0.034480 -1.076627 -10.365918 2.388053 0.204891 -3.118990 4.913701 0.522572 4.692742 0.646638 0.070791 0.014601 0.022902 
9.118918 4.739041 83.009727 -8.506581 -3.017729 -111.556182 -0.829326 -1.842801 1.114324 -0.415339 -0.818620 0.490288 -0.415339 -0.818620 0.490288 -0.310843 -0.614298 0.367152 1.716935 -22.287221 5.766443 4.673643 -5.547728 10.883560 3.988098 3.831361 0.655137 30.240109 -5.517339 69.385003 13.421225 -3.436017 18.194125 11.860767 -0.720318 -21.292988 -9.562052 -3.692761 -4.026975 -70.278965 -0.266275 -13.172619 2.549267 6.188856 5.294705 54.834077 19.072427 -45.837000 -0.325535 -8.705394 1.370105 0.663128 -5.558836 1.343923 -0.361390 5.163915 -3.343721 -0.027655 -0.116140 -0.035620 -1.131388 -10.374887 2.476895 0.209803 -3.113733 4.932394 0.481783 4.679854 0.560344 0.070471 0.023942 0.025582 
9.106484 4.712183 83.013008 -8.540450 -2.949148 -111.557152 -0.806479 -1.790953 1.159064 -0.407719 -0.795231 0.510713 -0.407719 -0.795231 0.510714 -0.305120 -0.596764 0.382499 1.713841 -22.369841 5.991973 4.720900 -5.720384 11.284564 3.834715 3.738549 0.556267 30.081540 -4.602722 70.841096 14.740189 -2.842016 19.974644 12.046402 -0.565940 -21.307841 -9.552604 -3.823636 -4.138909 -70.119050 -0.176202 -12.957608 2.637437 5.711511 5.597389 54.557369 18.686315 -45.990672 -0.387461 -8.688778 1.375714 0.679756 -5.608751 1.377294 -0.400377 5.199226 -3.385726 -0.022455 -0.121713 -0.036342 -1.188764 -10.384309 2.570291 0.220602 -3.103526 4.933644 0.437798 4.669795 0.487269 0.068660 0.030790 0.027516 
9.098318 4.681774 83.016830 -8.569873 -2.875509 -111.559057 -0.795561 -1.744792 1.220351 -0.404279 -0.774601 0.538414 -0.404279 -0.774602 0.538415 -0.302522 -0.581308 0.403294 1.725263 -22.437165 6.213073 4.793915 -5.866386 11.682233 3.708603 3.618378 0.450773 29.959990 -3.511835 72.252405 16.133890 -2.475243 21.794862 12.395000 -0.229354 -21.262276 -9.488379 -3.962215 -4.226854 -69.990383 -0.068802 -12.766387 2.739176 5.136634 5.849990 54.333947 18.282161 -45.968652 -0.450723 -8.670153 1.367529 0.694898 -5.658695 1.425935 -0.439813 5.240174 -3.432646 -0.019886 -0.128204 -0.038461 -1.247588 -10.390557 2.656543 0.231301 -3.095049 4.917615 0.396349 4.663853 0.432972 0.064932 0.036728 0.029024 
9.093968 4.648816 83.021767 -8.592195 -2.799577 -111.559631 -0.745520 -1.663170 1.246131 -0.382692 -0.738367 0.550892 -0.382691 -0.738367 0.550889 -0.286349 -0.554121 0.412700 1.695912 -22.529627 6.462716 4.798189 -6.057493 12.118629 3.503253 3.513126 0.386773 29.601920 -2.607329 73.586819 17.566980 -1.731316 23.721191 12.859836 0.086218 -21.249953 -9.511718 -4.176306 -4.207763 -69.870185 0.046572 -12.582333 2.862265 4.506622 6.058097 54.140232 17.741538 -45.807453 -0.516697 -8.658233 1.360609 0.714993 -5.687126 1.469588 -0.480114 5.274970 -3.464186 -0.018365 -0.134759 -0.039983 -1.308190 -10.389858 2.718175 0.247138 -3.091511 4.908927 0.358075 4.661836 0.391399 0.057025 0.042659 0.029400 
9.091450 4.615846 83.027519 -8.616298 -2.725939 -111.562650 -0.692430 -1.601508 1.279276 -0.358486 -0.711633 0.565945 -0.358486 -0.711633 0.565942 -0.268202 -0.534057 0.424034 1.657238 -22.609526 6.719285 4.788042 -6.225327 12.565642 3.275058 3.437674 0.316147 28.925516 -1.946965 74.869358 18.890427 -0.458131 25.796583 13.339662 0.336069 -21.305535 -9.547483 -4.365691 -4.210960 -69.721635 0.197979 -12.396856 2.954535 3.930825 6.202811 53.849362 17.046086 -45.522866 -0.587547 -8.649895 1.374920 0.753788 -5.713714 1.471174 -0.527843 5.311299 -3.489344 -0.018598 -0.141114 -0.041873 -1.371065 -10.390400 2.756400 0.267679 -3.093708 4.908413 0.320524 4.664576 0.366745 0.048774 0.047289 0.029817 
9.091527 4.584590 83.033669 -8.652315 -2.649626 -111.557357 -0.663078 -1.572875 1.355662 -0.344470 -0.700002 0.600020 -0.344470 -0.700002 0.600021 -0.257662 -0.525341 0.449620 1.647840 -22.670921 6.953477 4.825940 -6.360573 12.981169 3.072777 3.473354 0.184591 28.101435 -1.418622 76.039786 20.135924 0.990860 27.953022 13.753427 0.587611 -21.371269 -9.512128 -4.521100 -4.315066 -69.554446 0.399718 -12.229050 2.980014 3.440110 6.326593 53.379851 16.258260 -45.193921 -0.669952 -8.662290 1.400042 0.799580 -5.725042 1.433329 -0.568210 5.353574 -3.500115 -0.023250 -0.153335 -0.042528 -1.447079 -10.397264 2.762236 0.298940 -3.102861 4.913400 0.284746 4.664484 0.358890 0.038250 0.055924 0.029038 
9.098935 4.553135 83.040291 -8.704344 -2.571069 -111.534462 -0.623757 -1.556336 1.407780 -0.326278 -0.692820 0.624382 -0.326278 -0.692819 0.624380 -0.243997 -0.519949 0.467909 1.621318 -22.743808 7.204924 4.835823 -6.517171 13.422341 2.859451 3.496826 0.101766 27.432968 -0.753844 77.193166 21.461443 2.135179 30.023842 13.921496 0.816871 -21.352380 -9.507496 -4.633273 -4.369436 -69.383889 0.582396 -12.058334 2.981681 3.032686 6.461844 52.891079 15.528597 -44.869282 -0.756419 -8.716822 1.396907 0.835314 -5.696145 1.397488 -0.592029 5.396250 -3.490545 -0.034115 -0.172396 -0.041140 -1.531155 -10.422007 2.738013 0.333257 -3.110538 4.919399 0.253010 4.663051 0.357623 0.026451 0.065785 0.027689 
9.114326 4.519220 83.047844 -8.771688 -2.488507 -111.493891 -0.589351 -1.550739 1.465417 -0.311061 -0.690681 0.651039 -0.311061 -0.690682 0.651043 -0.232557 -0.518344 0.487923 1.602758 -22.816358 7.451280 4.858134 -6.674027 13.856317 2.599565 3.433644 -0.008778 27.159407 0.206787 78.409021 22.780805 2.718941 31.909063 14.075587 1.126602 -21.218893 -9.514572 -4.731955 -4.428112 -69.201544 0.715523 -11.902954 3.021435 2.698965 6.609992 52.542856 14.847641 -44.599527 -0.852262 -8.810357 1.359339 0.873058 -5.631688 1.357109 -0.604654 5.442110 -3.463575 -0.051650 -0.196710 -0.039299 -1.618679 -10.464493 2.693197 0.361627 -3.115115 4.930848 0.226248 4.657337 0.342742 0.014915 0.079135 0.026539 
9.136901 4.479685 83.055603 -8.843883 -2.398792 -111.418451 -0.563872 -1.547176 1.521272 -0.299882 -0.689345 0.676623 -0.299882 -0.689344 0.676619 -0.224145 -0.517341 0.507122 1.603285 -22.883002 7.683165 4.911043 -6.821380 14.269502 2.371292 3.424222 -0.127461 27.047051 1.243293 79.522144 24.077721 3.039310 33.738908 14.456054 1.501866 -21.053471 -9.541601 -4.801226 -4.513615 -68.978934 0.884117 -11.704409 3.057680 2.356780 6.714979 52.301631 14.236809 -44.334171 -0.952764 -8.939083 1.270086 0.913361 -5.523758 1.318420 -0.606572 5.490138 -3.415185 -0.075443 -0.225356 -0.034529 -1.704452 -10.512048 2.614995 0.384929 -3.120348 4.938380 0.205342 4.651367 0.332239 0.001828 0.092770 0.023732 
9.170021 4.433364 83.063850 -8.924419 -2.309321 -111.300514 -0.543955 -1.532400 1.579637 -0.289851 -0.682447 0.703013 -0.289851 -0.682448 0.703012 -0.216601 -0.512171 0.526928 1.624128 -22.951847 7.893571 4.994152 -6.973677 14.649002 2.189199 3.554375 -0.292823 26.830530 2.132412 80.444691 25.437629 3.557181 35.620844 15.034368 1.840660 -20.894519 -9.535269 -4.935120 -4.592369 -68.776160 1.111305 -11.545331 3.066624 1.953865 6.773957 52.077187 13.701793 -44.005755 -1.047049 -9.115237 1.129851 0.957501 -5.363806 1.259600 -0.602120 5.532382 -3.372710 -0.102761 -0.252814 -0.028933 -1.776318 -10.571114 2.514400 0.394083 -3.128921 4.912900 0.195637 4.647828 0.337257 -0.012333 0.106430 0.019660 
9.214603 4.378336 83.072342 -8.997520 -2.220709 -111.127984 -0.514168 -1.500381 1.612691 -0.273203 -0.667310 0.718074 -0.273203 -0.667310 0.718072 -0.204117 -0.500805 0.538251 1.636916 -23.029074 8.103096 5.061105 -7.140812 15.024022 2.010276 3.748016 -0.453545 26.327282 2.823612 81.232198 26.858875 4.492491 37.619886 15.582646 2.226260 -20.784457 -9.534170 -5.109411 -4.631991 -68.586403 1.364606 -11.415967 3.055032 1.524600 6.790342 51.829914 13.195208 -43.568404 -1.117372 -9.322951 0.934351 0.976950 -5.165785 1.180039 -0.576585 5.572605 -3.296404 -0.128170 -0.272330 -0.023079 -1.823869 -10.626963 2.384951 0.391700 -3.142410 4.834531 0.193829 4.650120 0.354835 -0.026853 0.116941 0.015250 
9.269926 4.323225 83.080063 -9.070566 -2.111806 -110.916009 -0.499845 -1.479113 1.648022 -0.252200 -0.657248 0.732926 -0.252201 -0.657249 0.732928 -0.188360 -0.493241 0.549419 1.649974 -23.098561 8.300217 5.125778 -7.292756 15.377169 1.753729 4.132371 -0.678854 25.907884 3.324892 81.955993 28.266623 5.425516 39.572501 15.978642 2.682118 -20.652115 -9.551844 -5.237413 -4.691207 -68.384312 1.591398 -11.285816 3.016295 1.155976 6.768594 51.552130 12.657429 -43.101096 -1.198842 -9.546634 0.731957 0.994025 -4.942071 1.059933 -0.542414 5.592924 -3.210802 -0.149072 -0.269693 -0.016723 -1.886710 -10.669533 2.229186 0.394745 -3.179489 4.718557 0.196003 4.677611 0.393310 -0.041814 0.114033 0.009893 
9.328071 4.261825 83.086868 -9.126965 -2.020059 -110.664999 -0.458473 -1.450639 1.667636 -0.228928 -0.644373 0.742521 -0.228929 -0.644376 0.742520 -0.170912 -0.483560 0.556645 1.669890 -23.182478 8.491655 5.199108 -7.472101 15.720654 1.554762 4.585105 -0.883188 25.625475 3.801167 82.629293 29.607142 6.006494 41.369578 16.184504 3.194836 -20.404796 -9.592938 -5.319079 -4.738471 -68.166408 1.793267 -11.121110 2.960651 0.878571 6.732040 51.157348 12.203051 -42.691838 -1.245859 -9.769808 0.520798 1.012331 -4.724078 0.911297 -0.511918 5.639280 -3.116014 -0.165330 -0.276609 -0.010784 -1.916817 -10.691080 2.044682 0.400848 -3.237954 4.578503 0.194980 4.695052 0.435327 -0.055456 0.124476 0.002986 
9.384803 4.200526 83.091393 -9.159224 -1.925785 -110.381335 -0.418450 -1.414705 1.677976 -0.206396 -0.628905 0.746890 -0.206396 -0.628906 0.746892 -0.154027 -0.471933 0.559951 1.704793 -23.275176 8.676633 5.296044 -7.669489 16.055517 1.335877 5.068567 -1.075487 25.635254 4.396681 83.195181 30.932004 6.140313 43.030427 16.426064 3.809854 -20.047864 -9.631987 -5.387848 -4.785945 -67.949065 1.986039 -10.966751 2.914173 0.682257 6.692257 50.745601 11.855331 -42.456169 -1.284526 -9.964498 0.312505 1.046251 -4.524010 0.746682 -0.488250 5.695471 -3.043464 -0.179793 -0.279239 -0.004529 -1.936337 -10.676467 1.870762 0.416985 -3.314096 4.386362 0.188626 4.713655 0.475649 -0.066229 0.132833 -0.002852 
